<?xml version="1.0" standalone="no"?>
<!DOCTYPE svg PUBLIC "-//W3C//DTD SVG 20010904//EN"
 "http://www.w3.org/TR/2001/REC-SVG-20010904/DTD/svg10.dtd">
<svg version="1.0" xmlns="http://www.w3.org/2000/svg"
 width="765.000000pt" height="326.000000pt" viewBox="0 0 765.000000 326.000000"
 preserveAspectRatio="xMidYMid meet">

<g transform="translate(0.000000,326.000000) scale(0.100000,-0.100000)"
fill="#000000" stroke="none">
<path d="M7530 3076 c0 -2 8 -10 18 -17 15 -13 16 -12 3 4 -13 16 -21 21 -21
13z"/>
<path d="M6430 2710 c-190 -25 -384 -142 -507 -308 -16 -20 -30 -39 -33 -42
-3 -3 -14 -18 -24 -34 -13 -21 -2 -15 47 27 87 74 162 117 295 168 39 15 142
28 272 34 158 7 216 18 285 50 45 22 115 85 115 105 0 8 -388 8 -450 0z"/>
<path d="M3685 2252 c-27 -42 -51 -83 -53 -89 -3 -9 13 -13 55 -13 59 0 60 1
130 64 l71 64 -61 26 c-34 14 -69 26 -77 26 -8 -1 -37 -35 -65 -78z"/>
<path d="M10 1890 l0 -380 90 0 90 0 0 155 0 155 165 0 166 0 -3 73 -3 72
-162 3 -163 2 0 75 0 75 205 0 205 0 0 75 0 75 -295 0 -295 0 0 -380z"/>
<path d="M4910 2210 l0 -60 90 0 90 0 0 60 0 60 -90 0 -90 0 0 -60z"/>
<path d="M812 2065 c-223 -49 -308 -320 -151 -484 56 -59 119 -81 231 -81 53
0 103 3 112 6 12 5 16 20 16 64 l0 58 -42 -10 c-24 -5 -68 -6 -98 -3 -45 6
-61 13 -92 45 -69 69 -66 70 176 70 247 0 234 -6 217 98 -23 141 -96 215 -236
241 -32 6 -61 11 -64 10 -3 0 -34 -7 -69 -14z m144 -131 c37 -18 79 -76 70
-99 -4 -12 -31 -15 -141 -15 -150 0 -155 2 -116 66 35 58 120 80 187 48z"/>
<path d="M1515 2070 c-81 -14 -136 -41 -189 -89 -64 -60 -86 -108 -86 -194 0
-78 16 -123 65 -183 60 -73 208 -125 313 -109 l42 6 0 53 0 53 -60 6 c-69 8
-103 23 -144 64 -111 111 -7 283 172 283 l32 0 0 55 c0 47 -3 55 -19 55 -10 0
-31 2 -47 4 -16 2 -51 0 -79 -4z"/>
<path d="M1895 2063 c-84 -25 -145 -78 -191 -163 -27 -52 -26 -181 3 -236 30
-56 89 -112 150 -140 72 -34 187 -34 259 0 133 62 200 184 173 315 -36 174
-218 278 -394 224z m165 -126 c39 -19 60 -72 60 -150 0 -125 -43 -173 -147
-165 -70 6 -98 32 -114 106 -19 95 10 189 66 213 31 12 107 10 135 -4z"/>
<path d="M2558 2064 c-93 -22 -145 -64 -182 -144 -17 -39 -21 -70 -24 -227
l-4 -183 91 0 91 0 0 153 c0 83 5 169 11 191 16 57 49 86 99 86 56 0 78 -14
101 -63 16 -36 19 -67 19 -204 l0 -163 89 0 90 0 3 184 3 185 29 30 c53 56
142 37 172 -35 10 -24 14 -80 14 -199 l0 -165 91 0 91 0 -4 188 c-3 166 -6
192 -25 232 -38 80 -95 119 -201 140 -72 15 -159 2 -229 -32 -40 -20 -43 -20
-67 -4 -28 18 -137 46 -176 45 -14 0 -51 -7 -82 -15z"/>
<path d="M3617 2064 c-72 -17 -130 -55 -174 -112 -42 -56 -56 -110 -51 -198 8
-114 68 -195 176 -237 42 -17 211 -24 246 -11 12 5 16 20 16 61 l0 55 -64 -7
c-70 -7 -131 5 -163 32 -22 19 -43 55 -43 72 0 8 69 11 215 11 l215 0 0 60 c0
107 -56 206 -140 250 -32 16 -137 41 -164 39 -6 0 -37 -7 -69 -15z m167 -141
c30 -22 60 -83 48 -95 -5 -5 -69 -7 -143 -6 -128 3 -134 4 -131 23 5 31 35 68
73 88 41 22 117 17 153 -10z"/>
<path d="M4235 2066 c-65 -21 -114 -55 -148 -105 l-32 -46 -3 -202 -3 -203 90
0 91 0 0 184 c0 183 0 185 26 215 19 23 39 33 85 43 l59 12 0 58 0 58 -62 -1
c-35 0 -81 -6 -103 -13z"/>
<path d="M4658 2065 c-142 -28 -241 -127 -254 -251 -13 -127 55 -237 181 -292
46 -20 145 -34 193 -27 l42 6 0 55 0 54 -35 0 c-52 0 -126 28 -162 62 -54 52
-62 137 -18 204 24 37 98 75 160 81 l55 6 0 52 0 52 -37 7 c-46 7 -42 7 -125
-9z"/>
<path d="M5355 2063 c-99 -30 -183 -110 -206 -196 -18 -66 -6 -167 25 -221 56
-96 151 -146 275 -146 66 0 87 4 137 30 104 51 163 144 163 255 0 135 -81 238
-219 279 -66 20 -110 19 -175 -1z m180 -143 c33 -31 48 -91 42 -162 -9 -99
-48 -138 -139 -138 -21 0 -52 7 -67 15 -80 41 -82 248 -3 298 40 26 133 19
167 -13z"/>
<path d="M4910 1785 l0 -275 90 0 90 0 0 275 0 275 -90 0 -90 0 0 -275z"/>
<path d="M180 1056 c-71 -16 -111 -37 -145 -78 -25 -29 -27 -38 -23 -96 4 -60
7 -67 45 -102 54 -51 93 -61 251 -67 l132 -5 0 111 c0 61 3 111 7 111 4 0 18
-12 31 -27 13 -16 57 -65 98 -110 l76 -83 59 0 59 0 0 62 0 62 35 -41 c40 -47
88 -69 172 -78 l60 -7 6 28 c7 38 3 42 -41 50 -78 14 -122 53 -122 109 0 49
60 95 123 95 37 0 49 14 42 51 -6 33 -10 33 -81 20 -83 -15 -137 -42 -166 -82
l-23 -31 -5 59 -5 58 -55 0 -55 0 -5 -120 -5 -120 -22 29 c-45 57 -146 161
-172 177 -14 8 -39 19 -56 23 -16 4 -38 9 -47 12 -16 5 -18 -8 -20 -138 l-3
-143 -57 2 c-91 3 -148 44 -148 106 0 36 47 85 89 93 28 6 31 10 31 45 0 22
-1 39 -2 38 -2 -1 -28 -7 -58 -13z"/>
<path d="M1361 1057 c-45 -17 -81 -61 -81 -98 0 -42 36 -74 106 -93 81 -23
104 -33 111 -52 3 -8 1 -20 -5 -26 -17 -17 -97 -13 -142 7 -41 18 -41 18 -63
-4 l-22 -22 25 -19 c27 -21 101 -40 156 -40 49 0 100 24 120 57 10 15 19 30
21 32 1 2 12 -8 24 -23 31 -39 71 -56 134 -56 54 0 55 0 55 30 0 29 -1 30 -48
30 -35 0 -54 5 -65 18 -34 37 -22 42 93 42 104 0 110 1 110 20 0 19 2 19 23 6
12 -8 38 -17 57 -21 85 -16 113 -42 70 -65 -18 -10 -64 -6 -130 11 -11 3 -15
-4 -15 -26 0 -25 5 -32 35 -42 44 -15 101 -16 137 -2 39 14 73 49 73 73 0 17
4 15 33 -14 41 -43 84 -60 147 -60 50 0 51 1 48 28 -3 23 -8 27 -40 30 -26 2
-47 13 -68 33 -48 48 -37 95 30 129 22 11 48 20 60 20 15 0 20 7 20 25 0 23
-3 25 -49 25 -91 0 -166 -51 -177 -121 l-6 -37 -31 19 c-17 10 -50 21 -73 25
-57 8 -72 19 -58 41 13 22 65 29 94 13 20 -11 21 -9 18 22 -3 33 -4 33 -58 36
-65 4 -123 -19 -139 -55 l-12 -25 -20 26 c-47 59 -133 73 -204 33 -31 -17 -45
-34 -61 -75 -20 -51 -21 -52 -38 -33 -10 11 -47 27 -84 37 -87 22 -102 31
-102 54 0 32 54 38 128 15 19 -7 22 -4 22 23 0 16 -6 34 -13 40 -21 17 -109
23 -146 9z m427 -127 c12 -12 22 -25 22 -30 0 -6 -34 -10 -76 -10 -71 0 -76 1
-63 18 36 47 80 56 117 22z"/>
<path d="M2683 1057 c-64 -24 -93 -68 -79 -122 8 -33 39 -52 122 -75 37 -11
75 -27 83 -35 14 -13 13 -17 -2 -32 -22 -22 -85 -21 -137 2 -37 17 -38 17 -60
-5 -29 -29 -14 -45 58 -66 97 -29 194 -6 226 52 6 10 12 21 14 23 1 3 10 -6
19 -18 19 -28 87 -60 126 -61 23 0 27 4 27 29 0 23 -5 30 -29 34 -29 6 -61 31
-61 48 0 5 49 9 110 9 l110 0 0 -55 0 -55 45 0 45 0 0 90 c0 77 3 93 20 110
26 26 46 25 75 -5 23 -22 25 -32 25 -110 l0 -85 40 0 c33 0 40 3 40 20 0 26 8
25 37 -2 28 -26 106 -31 148 -8 22 12 29 12 32 3 3 -8 21 -13 44 -13 l39 0 0
51 0 52 41 -46 c30 -35 53 -50 92 -62 78 -23 87 -21 87 20 0 30 -3 35 -23 35
-50 0 -96 49 -97 103 0 46 41 94 89 103 26 6 31 11 31 35 0 26 -3 29 -32 29
-51 0 -130 -42 -158 -83 -26 -38 -40 -47 -40 -24 0 28 -49 60 -100 65 l-50 5
0 -31 c0 -26 5 -31 30 -37 17 -4 35 -15 40 -25 9 -16 3 -18 -65 -22 -57 -2
-81 -8 -104 -26 -17 -12 -33 -22 -36 -22 -3 0 -5 16 -5 36 0 76 -54 124 -142
124 -64 0 -115 -27 -131 -70 -12 -31 -27 -40 -27 -16 0 25 -56 74 -98 86 -23
6 -59 8 -79 4 -49 -9 -111 -66 -119 -110 -3 -19 -8 -34 -10 -34 -1 0 -18 9
-36 20 -18 10 -58 24 -88 31 -62 13 -80 24 -80 49 0 22 19 30 71 30 36 0 39 2
39 29 0 21 -6 30 -22 35 -32 8 -58 6 -95 -7z m407 -112 c18 -9 30 -24 30 -35
0 -18 -7 -20 -65 -20 -73 0 -84 14 -39 49 32 25 36 25 74 6z m625 -105 c4 -6
-1 -22 -9 -35 -13 -20 -25 -25 -61 -25 -36 0 -45 4 -51 22 -4 15 -1 25 12 35
21 15 100 17 109 3z"/>
<path d="M790 241 l0 -50 -37 15 c-73 31 -153 -19 -153 -96 0 -77 80 -127 153
-96 20 8 37 11 37 5 0 -5 7 -9 15 -9 13 0 15 22 15 140 0 118 -2 140 -15 140
-11 0 -15 -12 -15 -49z m-23 -73 c51 -48 15 -138 -56 -138 -71 0 -106 76 -60
134 27 34 82 36 116 4z"/>
<path d="M45 255 c-49 -48 -22 -94 66 -115 86 -20 109 -50 68 -91 -19 -19 -29
-21 -80 -15 -34 3 -59 2 -59 -3 0 -10 14 -15 66 -26 45 -9 101 17 115 52 21
57 -9 92 -96 108 -57 10 -77 23 -73 48 5 35 49 53 97 41 32 -9 41 -8 41 1 0
17 -23 25 -76 25 -34 0 -51 -6 -69 -25z"/>
<path d="M280 270 c0 -5 7 -10 15 -10 8 0 15 5 15 10 0 6 -7 10 -15 10 -8 0
-15 -4 -15 -10z"/>
<path d="M880 270 c0 -5 7 -10 15 -10 8 0 15 5 15 10 0 6 -7 10 -15 10 -8 0
-15 -4 -15 -10z"/>
<path d="M1380 147 c0 -103 14 -137 56 -137 30 0 31 12 2 25 -20 9 -23 19 -26
78 -3 66 -3 67 23 67 16 0 25 6 25 15 0 9 -9 15 -25 15 -16 0 -25 6 -25 15 0
8 -7 15 -15 15 -12 0 -15 -17 -15 -93z"/>
<path d="M280 111 c0 -84 3 -101 15 -101 13 0 15 15 13 97 -2 66 -7 98 -15
101 -10 3 -13 -21 -13 -97z"/>
<path d="M409 195 c-33 -18 -49 -61 -49 -131 0 -41 4 -54 15 -54 12 0 15 14
15 65 0 57 3 69 25 90 28 29 51 31 83 9 19 -13 22 -24 22 -90 0 -59 3 -74 15
-74 12 0 15 15 15 71 0 65 -2 73 -29 100 -33 32 -70 37 -112 14z"/>
<path d="M880 110 c0 -82 3 -100 15 -100 12 0 15 18 15 100 0 82 -3 100 -15
100 -12 0 -15 -18 -15 -100z"/>
<path d="M1013 194 c-42 -21 -66 -77 -49 -118 14 -36 50 -62 95 -71 44 -9 38
16 -7 27 -86 23 -80 137 8 155 17 3 30 9 30 14 0 14 -42 10 -77 -7z"/>
<path d="M1173 203 c-30 -11 -10 -22 31 -17 36 5 47 3 65 -15 33 -33 22 -45
-37 -42 -71 4 -112 -20 -112 -65 0 -46 62 -71 125 -49 24 9 41 11 43 5 2 -6
10 -10 18 -10 10 0 14 15 14 59 0 69 -15 118 -40 131 -19 10 -85 12 -107 3z
m113 -107 c9 -24 -14 -54 -51 -66 -30 -10 -40 -9 -60 4 -29 19 -33 51 -7 65
27 16 112 14 118 -3z"/>
<path d="M1554 200 c-33 -13 -64 -59 -64 -95 0 -89 119 -134 189 -71 33 30 41
58 30 101 -17 59 -91 91 -155 65z m101 -35 c51 -50 20 -135 -49 -135 -51 0
-81 29 -81 80 0 32 6 46 25 61 35 26 76 24 105 -6z"/>
<path d="M1769 198 c-45 -35 -28 -79 39 -98 51 -14 65 -24 60 -46 -3 -16 -12
-19 -61 -18 -54 1 -70 -6 -46 -21 5 -4 30 -7 55 -8 57 0 90 27 80 67 -5 20
-18 29 -62 43 -60 19 -74 34 -53 59 10 12 23 14 52 10 29 -5 38 -3 35 6 -6 18
-79 22 -99 6z"/>
</g>
</svg>
