<?xml version="1.0" standalone="no"?>
<!DOCTYPE svg PUBLIC "-//W3C//DTD SVG 20010904//EN"
 "http://www.w3.org/TR/2001/REC-SVG-20010904/DTD/svg10.dtd">
<svg version="1.0" xmlns="http://www.w3.org/2000/svg"
 width="586.000000pt" height="262.000000pt" viewBox="0 0 586.000000 262.000000"
 preserveAspectRatio="xMidYMid meet">

<g transform="translate(0.000000,262.000000) scale(0.100000,-0.100000)"
fill="#000000" stroke="none">
<path d="M1135 2359 c-312 -23 -475 -131 -575 -383 -37 -93 -38 -97 -180 -909
-89 -507 -109 -641 -100 -652 10 -12 55 -15 251 -15 l239 0 15 24 c10 14 40
164 76 368 32 188 61 353 64 366 l5 22 334 0 c304 0 334 1 349 18 9 10 26 78
43 167 31 173 33 203 13 216 -8 5 -162 9 -342 9 l-329 0 6 28 c3 15 13 68 22
117 9 50 23 103 31 118 26 53 54 57 373 57 178 0 299 4 310 10 23 12 30 39 66
233 23 130 25 151 12 163 -30 31 -473 58 -683 43z"/>
<path d="M3355 2359 c-258 -35 -395 -125 -489 -321 -55 -115 -68 -171 -158
-683 -59 -341 -72 -429 -72 -525 -1 -99 2 -124 23 -180 48 -125 172 -218 342
-257 124 -29 560 -21 732 13 15 3 34 15 42 27 7 12 26 90 40 172 14 83 28 158
31 167 3 9 -4 26 -15 37 -20 20 -32 21 -319 21 -344 0 -342 0 -342 77 0 25 10
97 21 160 l21 113 332 0 c252 0 336 3 349 13 24 17 86 350 70 375 -9 15 -45
17 -347 20 -315 2 -337 3 -332 20 3 9 12 59 21 111 9 52 22 108 29 125 26 62
20 61 368 66 307 5 320 6 336 26 23 28 81 369 65 385 -31 31 -590 60 -748 38z"/>
<path d="M5045 2363 c-213 -12 -360 -85 -443 -221 -12 -20 -87 -201 -167 -402
-404 -1021 -515 -1305 -515 -1316 0 -29 42 -34 267 -34 174 1 234 4 253 14 20
11 40 54 100 208 l75 193 233 3 c127 1 233 1 234 0 0 -2 4 -90 7 -196 5 -176
8 -195 25 -208 16 -11 67 -14 247 -14 201 0 229 2 248 18 l21 17 -30 700 c-42
996 -40 975 -56 1031 -28 100 -114 167 -244 192 -64 12 -183 19 -255 15z m28
-630 c4 -108 7 -265 7 -350 l0 -153 -155 0 c-85 0 -155 3 -155 8 0 4 57 161
126 350 114 306 129 342 149 342 21 0 22 -3 28 -197z"/>
<path d="M2101 2331 c-9 -6 -29 -94 -56 -247 -23 -132 -42 -240 -40 -242 3 -3
558 257 567 266 4 4 9 25 12 47 3 22 11 66 17 98 6 31 8 64 5 72 -5 13 -42 15
-248 15 -134 0 -249 -4 -257 -9z"/>
<path d="M2248 1757 c-152 -73 -279 -135 -283 -138 -3 -3 -52 -271 -109 -595
-73 -414 -101 -594 -95 -606 9 -16 31 -18 254 -18 243 0 245 0 259 23 8 12 57
266 111 577 95 553 140 810 151 863 3 15 2 27 -3 26 -4 0 -133 -60 -285 -132z"/>
</g>
</svg>
