<?xml version="1.0" encoding="UTF-8" standalone="no"?>
<svg
   xmlns:dc="http://purl.org/dc/elements/1.1/"
   xmlns:cc="http://creativecommons.org/ns#"
   xmlns:rdf="http://www.w3.org/1999/02/22-rdf-syntax-ns#"
   xmlns:svg="http://www.w3.org/2000/svg"
   xmlns="http://www.w3.org/2000/svg"
   viewBox="0 0 249.44 51.826668"
   height="51.826668"
   width="249.44"
   xml:space="preserve"
   id="svg2"
   version="1.1"><metadata
     id="metadata8"><rdf:RDF><cc:Work
         rdf:about=""><dc:format>image/svg+xml</dc:format><dc:type
           rdf:resource="http://purl.org/dc/dcmitype/StillImage" /></cc:Work></rdf:RDF></metadata><defs
     id="defs6" /><g
     transform="matrix(1.3333333,0,0,-1.3333333,0,51.826667)"
     id="g10"><g
       transform="scale(0.1)"
       id="g12"><path
         id="path14"
         style="fill:#ffffff;fill-opacity:1;fill-rule:evenodd;stroke:none"
         d="m 387.434,349.395 c 14.992,-18.907 -31.606,-61.301 -30,-100 -29.45,33.359 18.203,74.695 30,100" /><path
         id="path16"
         style="fill:#ffffff;fill-opacity:1;fill-rule:evenodd;stroke:none"
         d="m 1007.6,343.719 c 15,-18.906 -31.6,-61.297 -29.998,-100 -29.45,33.359 18.203,74.699 29.998,100" /><path
         id="path18"
         style="fill:#ffffff;fill-opacity:1;fill-rule:evenodd;stroke:none"
         d="m 1607.85,332.539 c 14.99,-18.906 -31.6,-61.301 -30,-100 -29.45,33.359 18.2,74.695 30,100" /><path
         id="path20"
         style="fill:#ec1d27;fill-opacity:1;fill-rule:evenodd;stroke:none"
         d="m 524.355,97.9609 c 0,-31.3125 -22.335,-56.6914 -49.89,-56.6914 h -3.442 c -27.554,0 -49.89,25.3789 -49.89,56.6914 V 287.207 c 0,31.309 22.336,56.688 49.89,56.688 h 3.442 c 27.555,0 49.89,-25.379 49.89,-56.688 z M 472.738,380.262 c -92.269,0 -167.074,-84.032 -167.074,-187.684 0,-103.6444 74.805,-187.67566 167.074,-187.67566 92.278,0 167.082,84.03126 167.082,187.67566 0,103.652 -74.804,187.684 -167.082,187.684" /><path
         id="path22"
         style="fill:#ec1d27;fill-opacity:1;fill-rule:evenodd;stroke:none"
         d="m 1145.22,97.9609 c 0,-31.3125 -22.32,-56.6914 -49.88,-56.6914 h -3.44 c -27.56,0 -49.9,25.3789 -49.9,56.6914 V 287.207 c 0,31.309 22.34,56.688 49.9,56.688 h 3.44 c 27.56,0 49.88,-25.379 49.88,-56.688 z m -51.61,282.3011 c -92.27,0 -167.079,-84.032 -167.079,-187.684 0,-103.6444 74.809,-187.67566 167.079,-187.67566 92.27,0 167.08,84.03126 167.08,187.67566 0,103.652 -74.81,187.684 -167.08,187.684" /><path
         id="path24"
         style="fill:#ec1d27;fill-opacity:1;fill-rule:evenodd;stroke:none"
         d="m 1755.34,97.9609 c 0,-31.3125 -22.33,-56.6914 -49.89,-56.6914 h -3.43 c -27.56,0 -49.91,25.3789 -49.91,56.6914 V 287.207 c 0,31.309 22.35,56.688 49.91,56.688 h 3.43 c 27.56,0 49.89,-25.379 49.89,-56.688 z m -51.61,282.3011 c -92.28,0 -167.08,-84.032 -167.08,-187.684 0,-103.6444 74.8,-187.67566 167.08,-187.67566 92.27,0 167.08,84.03126 167.08,187.67566 0,103.652 -74.81,187.684 -167.08,187.684" /><path
         id="path26"
         style="fill:#ec1d27;fill-opacity:1;fill-rule:evenodd;stroke:none"
         d="m 914.043,92.293 c 0,0 -88.594,-111.5313 -144.027,-5.418 0,0 -24.547,72.832 0.797,222.5 0,0 14.25,37.215 76.808,26.133 0,0 26.926,-43.555 -35.633,-23.762 0,0 -41.972,-32.469 5.539,-66.512 0,0 42.766,-36.425 92.653,11.875 0,0 32.472,45.918 -15.832,92.645 0,0 -111.66,61.777 -175.801,-20.586 0,0 -96.613,-85.555 -35.637,-245.4883 0,0 50.68,-90.2422 152.039,-80.7422 0,0 68.899,7.1289 101.364,69.6875 0,0 3.765,25.0898 -22.27,19.668" /><path
         id="path28"
         style="fill:#ffffff;fill-opacity:1;fill-rule:evenodd;stroke:none"
         d="m 739.73,344.336 c 14.997,-18.906 -31.601,-61.301 -30,-100 -29.449,33.359 18.204,74.695 30,100" /><path
         id="path30"
         style="fill:#ffffff;fill-opacity:1;fill-rule:evenodd;stroke:none"
         d="m 846.93,292.098 c 3.789,10.617 -27.7,1.867 -34.45,11.789 -8.164,-19.942 23.637,-10.508 34.45,-11.789" /><path
         id="path32"
         style="fill:#ec1d27;fill-opacity:1;fill-rule:evenodd;stroke:none"
         d="m 1526.84,92.293 c 0,0 -95.07,-111.4453 -144.02,-5.418 0,0 -24.55,72.832 0.8,222.5 0,0 14.25,37.215 76.8,26.133 0,0 26.93,-43.555 -35.63,-23.762 0,0 -41.97,-32.469 5.55,-66.512 0,0 42.75,-36.425 92.64,11.875 0,0 32.47,45.918 -15.83,92.645 0,0 -111.66,61.777 -175.8,-20.586 0,0 -96.62,-85.555 -35.64,-245.4883 0,0 50.68,-90.2422 152.05,-80.7422 0,0 68.89,7.1289 101.36,69.6875 0,0 3.76,25.0898 -22.28,19.668" /><path
         id="path34"
         style="fill:#ffffff;fill-opacity:1;fill-rule:evenodd;stroke:none"
         d="m 1352.53,344.336 c 14.99,-18.906 -31.6,-61.301 -30,-100 -29.44,33.359 18.21,74.695 30,100" /><path
         id="path36"
         style="fill:#ffffff;fill-opacity:1;fill-rule:evenodd;stroke:none"
         d="m 1459.73,292.098 c 3.79,10.617 -27.69,1.867 -34.45,11.789 -8.17,-19.942 23.64,-10.508 34.45,-11.789" /><path
         id="path38"
         style="fill:#ec1d27;fill-opacity:1;fill-rule:evenodd;stroke:none"
         d="m 116.547,383.906 c 33.039,7.391 67.246,5.379 100,0 148.348,-22.929 51.91,-223.379 -50,-110 -12.938,38.914 19.258,68.086 60,60 -30.883,43.379 -103.117,4.063 -110,-30 1.621,-118.019 135.031,-62.168 170,-130 C 362.637,26.3164 103.215,-63.3984 6.54688,53.9063 1.68359,67.3359 -3.17969,70.9844 2.69141,101.531 6.87891,140.418 114.539,183.262 136.547,103.906 133.484,56.2578 120.41,49.2188 86.5469,43.9063 c 46.9651,-13.0079 96.3671,5.7031 100.0001,50 7.07,86.1917 -203.3283,70.7697 -170.0001,209.9997 8.2773,43.125 39.4687,72.305 100.0001,80" /><path
         id="path40"
         style="fill:#ffffff;fill-opacity:1;fill-rule:evenodd;stroke:none"
         d="m 231.855,321.523 c 1.125,11.211 -27.339,-4.855 -36.273,3.145 -3.125,-21.32 25.473,-4.504 36.273,-3.145" /><path
         id="path42"
         style="fill:#ffffff;fill-opacity:1;fill-rule:evenodd;stroke:none"
         d="m 116.02,60.6914 c 1.125,11.2109 -27.3403,-4.8516 -36.2739,3.1445 -3.125,-21.3164 25.4729,-4.5 36.2739,-3.1445" /></g></g></svg>